<svg xmlns="http://www.w3.org/2000/svg" xmlns:xlink="http://www.w3.org/1999/xlink" version="1.1" viewBox="0 0 64 57">
    <desc>European flag</desc>
    <defs>
        <g id="s">
            <g id="c">
                <path id="t" d="M0,0v1h0.5z" transform="translate(0,-1)rotate(18)" />
                <use xlink:href="#t" transform="scale(-1,1)" />
            </g>
            <g id="a">
                <use xlink:href="#c" transform="rotate(72)" />
                <use xlink:href="#c" transform="rotate(144)" />
            </g>
            <use xlink:href="#a" transform="scale(-1,1)" />
        </g>
    </defs>
    <rect fill="#039" width="64" height="57" rx="5" />
    <g fill="#fc0" transform="scale(3.8)translate(8.4,8)">
        <use xlink:href="#s" y="-6" />
        <use xlink:href="#s" y="6" />
        <g id="l">
            <use xlink:href="#s" x="-6" />
            <use xlink:href="#s" transform="rotate(150)translate(0,6)rotate(66)" />
            <use xlink:href="#s" transform="rotate(120)translate(0,6)rotate(24)" />
            <use xlink:href="#s" transform="rotate(60)translate(0,6)rotate(12)" />
            <use xlink:href="#s" transform="rotate(30)translate(0,6)rotate(42)" />
        </g>
        <use xlink:href="#l" transform="scale(-1,1)" />
    </g>
    <path fill="#1285fe" transform="scale(0.95)translate(2,2)"
        d="M13.873 3.805C21.21 9.332 29.103 20.537 32 26.55v15.882c0-.338-.13.044-.41.867-1.512 4.456-7.418 21.847-20.923 7.944-7.111-7.32-3.819-14.64 9.125-16.85-7.405 1.264-15.73-.825-18.014-9.015C1.12 23.022 0 8.51 0 6.55 0-3.268 8.579-.182 13.873 3.805ZM50.127 3.805C42.79 9.332 34.897 20.537 32 26.55v15.882c0-.338.13.044.41.867 1.512 4.456 7.418 21.847 20.923 7.944 7.111-7.32 3.819-14.64-9.125-16.85 7.405 1.264 15.73-.825 18.014-9.015C62.88 23.022 64 8.51 64 6.55c0-9.818-8.578-6.732-13.873-2.745Z" />


</svg>